<svg width="17" height="17" viewBox="0 0 17 17" fill="none" xmlns="http://www.w3.org/2000/svg">
<path d="M8.50001 6.00187C7.96958 6.00187 7.46087 6.21259 7.0858 6.58766C6.71072 6.96273 6.50001 7.47144 6.50001 8.00187C6.50001 8.5323 6.71072 9.04101 7.0858 9.41609C7.46087 9.79116 7.96958 10.0019 8.50001 10.0019C9.03044 10.0019 9.53915 9.79116 9.91422 9.41609C10.2893 9.04101 10.5 8.5323 10.5 8.00187C10.5 7.47144 10.2893 6.96273 9.91422 6.58766C9.53915 6.21259 9.03044 6.00187 8.50001 6.00187ZM8.50001 4.66854C9.38407 4.66854 10.2319 5.01973 10.857 5.64485C11.4822 6.26997 11.8333 7.11782 11.8333 8.00187C11.8333 8.88593 11.4822 9.73377 10.857 10.3589C10.2319 10.984 9.38407 11.3352 8.50001 11.3352C7.61596 11.3352 6.76811 10.984 6.14299 10.3589C5.51787 9.73377 5.16668 8.88593 5.16668 8.00187C5.16668 7.11782 5.51787 6.26997 6.14299 5.64485C6.76811 5.01973 7.61596 4.66854 8.50001 4.66854ZM12.8333 4.50187C12.8333 4.72289 12.7455 4.93485 12.5893 5.09113C12.433 5.24741 12.221 5.33521 12 5.33521C11.779 5.33521 11.567 5.24741 11.4108 5.09113C11.2545 4.93485 11.1667 4.72289 11.1667 4.50187C11.1667 4.28086 11.2545 4.0689 11.4108 3.91262C11.567 3.75634 11.779 3.66854 12 3.66854C12.221 3.66854 12.433 3.75634 12.5893 3.91262C12.7455 4.0689 12.8333 4.28086 12.8333 4.50187ZM8.50001 2.66854C6.85068 2.66854 6.58134 2.67321 5.81401 2.70721C5.29134 2.73187 4.94068 2.80187 4.61534 2.92854C4.32601 3.04054 4.11734 3.17454 3.89534 3.39721C3.68668 3.5988 3.52625 3.84493 3.42601 4.11721C3.29934 4.44387 3.22934 4.79387 3.20534 5.31587C3.17068 6.05187 3.16668 6.30921 3.16668 8.00187C3.16668 9.65121 3.17134 9.92054 3.20534 10.6879C3.23001 11.2099 3.30001 11.5612 3.42601 11.8859C3.53934 12.1759 3.67268 12.3845 3.89401 12.6059C4.11868 12.8299 4.32734 12.9639 4.61401 13.0745C4.94334 13.2019 5.29401 13.2725 5.81401 13.2965C6.55001 13.3312 6.80734 13.3352 8.50001 13.3352C10.1493 13.3352 10.4187 13.3305 11.186 13.2965C11.7073 13.2719 12.0587 13.2019 12.384 13.0759C12.6727 12.9632 12.8827 12.8292 13.104 12.6079C13.3287 12.3832 13.4627 12.1745 13.5733 11.8879C13.7 11.5592 13.7707 11.2079 13.7947 10.6879C13.8293 9.95187 13.8333 9.69454 13.8333 8.00187C13.8333 6.35254 13.8287 6.08321 13.7947 5.31587C13.77 4.79454 13.7 4.44254 13.5733 4.11721C13.4729 3.84521 13.3127 3.59918 13.1047 3.39721C12.9032 3.18844 12.657 3.02798 12.3847 2.92787C12.058 2.80121 11.7073 2.73121 11.186 2.70721C10.45 2.67254 10.1927 2.66854 8.50001 2.66854ZM8.50001 1.33521C10.3113 1.33521 10.5373 1.34187 11.248 1.37521C11.958 1.40854 12.4413 1.51987 12.8667 1.68521C13.3067 1.85454 13.6773 2.08387 14.048 2.45387C14.387 2.78714 14.6493 3.19026 14.8167 3.63521C14.9813 4.05987 15.0933 4.54387 15.1267 5.25387C15.158 5.96454 15.1667 6.19054 15.1667 8.00187C15.1667 9.81321 15.16 10.0392 15.1267 10.7499C15.0933 11.4599 14.9813 11.9432 14.8167 12.3685C14.6498 12.8137 14.3874 13.217 14.048 13.5499C13.7147 13.8888 13.3115 14.151 12.8667 14.3185C12.442 14.4832 11.958 14.5952 11.248 14.6285C10.5373 14.6599 10.3113 14.6685 8.50001 14.6685C6.68868 14.6685 6.46268 14.6619 5.75201 14.6285C5.04201 14.5952 4.55868 14.4832 4.13334 14.3185C3.68823 14.1515 3.28503 13.8892 2.95201 13.5499C2.61295 13.2167 2.35063 12.8135 2.18334 12.3685C2.01801 11.9439 1.90668 11.4599 1.87334 10.7499C1.84201 10.0392 1.83334 9.81321 1.83334 8.00187C1.83334 6.19054 1.84001 5.96454 1.87334 5.25387C1.90668 4.54321 2.01801 4.06054 2.18334 3.63521C2.35017 3.18999 2.61255 2.78675 2.95201 2.45387C3.28512 2.11469 3.6883 1.85236 4.13334 1.68521C4.55868 1.51987 5.04134 1.40854 5.75201 1.37521C6.46268 1.34387 6.68868 1.33521 8.50001 1.33521Z" fill="#566063"/>
</svg>
