<svg width="17" height="17" viewBox="0 0 17 17" fill="none" xmlns="http://www.w3.org/2000/svg">
<path d="M5.12684 3.33522C5.12666 3.68884 4.98602 4.02791 4.73585 4.27783C4.48567 4.52776 4.14646 4.66806 3.79284 4.66789C3.43922 4.66771 3.10015 4.52707 2.85023 4.27689C2.6003 4.02672 2.46 3.68751 2.46017 3.33389C2.46035 2.98027 2.601 2.6412 2.85117 2.39127C3.10134 2.14135 3.44055 2.00104 3.79417 2.00122C4.1478 2.0014 4.48687 2.14204 4.73679 2.39222C4.98671 2.64239 5.12702 2.9816 5.12684 3.33522ZM5.16684 5.65522H2.50017V14.0019H5.16684V5.65522ZM9.38017 5.65522H6.72684V14.0019H9.35351V9.62189C9.35351 7.18189 12.5335 6.95522 12.5335 9.62189V14.0019H15.1668V8.71522C15.1668 4.60189 10.4602 4.75522 9.35351 6.77522L9.38017 5.65522Z" fill="#566063"/>
</svg>
