<svg width="17" height="17" viewBox="0 0 17 17" fill="none" xmlns="http://www.w3.org/2000/svg">
<path d="M15.2746 3.77257C14.7656 3.9977 14.2259 4.14555 13.6732 4.21124C14.2557 3.86286 14.6917 3.31458 14.8999 2.66857C14.3532 2.9939 13.7539 3.2219 13.1292 3.34524C12.7097 2.89629 12.1535 2.59855 11.5472 2.49829C10.9409 2.39804 10.3185 2.5009 9.77676 2.79087C9.23497 3.08085 8.80417 3.54169 8.55132 4.10177C8.29847 4.66184 8.23775 5.28976 8.37858 5.8879C7.26999 5.83234 6.18547 5.54425 5.19544 5.04235C4.20541 4.54044 3.332 3.83594 2.63191 2.97457C2.38411 3.4002 2.25388 3.88406 2.25458 4.37657C2.25458 5.34324 2.74658 6.19724 3.49458 6.69724C3.05192 6.6833 2.619 6.56376 2.23191 6.34857V6.38324C2.23205 7.02704 2.45483 7.65098 2.86248 8.14928C3.27013 8.64757 3.83757 8.98955 4.46858 9.11724C4.05766 9.2286 3.62678 9.24501 3.20858 9.16524C3.38649 9.71939 3.73325 10.204 4.20031 10.5513C4.66736 10.8986 5.23133 11.0911 5.81325 11.1019C5.2349 11.5561 4.5727 11.8919 3.8645 12.09C3.1563 12.2881 2.416 12.3447 1.68591 12.2566C2.96038 13.0762 4.44398 13.5113 5.95925 13.5099C11.0879 13.5099 13.8926 9.26124 13.8926 5.57657C13.8926 5.45657 13.8892 5.33524 13.8839 5.21657C14.4298 4.82202 14.901 4.33325 15.2752 3.77324L15.2746 3.77257Z" fill="#566063"/>
</svg>
