<svg width="17" height="17" viewBox="0 0 17 17" fill="none" xmlns="http://www.w3.org/2000/svg">
<path d="M14.862 4.33403C15.1667 5.52203 15.1667 8.00203 15.1667 8.00203C15.1667 8.00203 15.1667 10.482 14.862 11.67C14.6927 12.3267 14.1973 12.8434 13.57 13.018C12.4307 13.3354 8.50001 13.3354 8.50001 13.3354C8.50001 13.3354 4.57134 13.3354 3.43001 13.018C2.80001 12.8407 2.30534 12.3247 2.13801 11.67C1.83334 10.482 1.83334 8.00203 1.83334 8.00203C1.83334 8.00203 1.83334 5.52203 2.13801 4.33403C2.30734 3.67737 2.80268 3.1607 3.43001 2.98603C4.57134 2.6687 8.50001 2.6687 8.50001 2.6687C8.50001 2.6687 12.4307 2.6687 13.57 2.98603C14.2 3.16337 14.6947 3.67937 14.862 4.33403ZM7.16668 10.3354L11.1667 8.00203L7.16668 5.6687V10.3354Z" fill="#566063"/>
</svg>
