<svg width="12" height="12" viewBox="0 0 12 12" fill="none" xmlns="http://www.w3.org/2000/svg">
<path d="M5.2929 0.292892C5.68342 -0.0976307 6.31658 -0.0976307 6.7071 0.292892L11.7071 5.29293C11.7113 5.29708 11.7153 5.30128 11.7194 5.30548C11.7362 5.32285 11.7524 5.34087 11.7679 5.35947C11.7775 5.37085 11.7865 5.38205 11.7952 5.39348C11.8067 5.40861 11.8179 5.4242 11.8287 5.44014C11.8397 5.45628 11.85 5.47247 11.8597 5.4888C11.8681 5.50306 11.8765 5.51796 11.8846 5.53316C11.8929 5.54873 11.9004 5.56403 11.9075 5.57941C11.9158 5.59728 11.9237 5.61572 11.9311 5.63445C12.0229 5.86913 12.0229 6.13089 11.9312 6.36509C11.9237 6.38431 11.9158 6.40281 11.9073 6.42096C11.9004 6.43606 11.8929 6.4513 11.8849 6.46637C11.8765 6.48208 11.8681 6.49706 11.8593 6.51178C11.85 6.52765 11.8397 6.54372 11.829 6.5596C11.8179 6.5758 11.8067 6.59143 11.795 6.60668C11.7685 6.64153 11.7391 6.67514 11.7071 6.70713L11.7679 6.64058C11.7524 6.65918 11.7362 6.67725 11.7194 6.69468L11.7071 6.70713L6.7071 11.7072C6.31658 12.0977 5.68342 12.0977 5.2929 11.7072C4.90237 11.3166 4.90237 10.6835 5.2929 10.293L8.586 6.99947L1 6.99999C0.484538 6.99999 0.0601647 6.60998 0.00587245 6.10895L0 6.00003C0 5.44775 0.447719 5.00006 1 5.00006L8.58515 4.99975L5.2929 1.70709C4.93027 1.34447 4.90436 0.772666 5.21518 0.380155L5.2929 0.292892Z" fill="#FFFFFF"/>
</svg>
