<svg width="16" height="16" viewBox="0 0 16 16" fill="none" xmlns="http://www.w3.org/2000/svg">
<path fill-rule="evenodd" clip-rule="evenodd" d="M8.01868 1.33556C11.686 1.34623 14.6667 4.33156 14.6667 8.0009C14.6667 11.6702 11.686 14.6562 8.01868 14.6662C8.01734 14.6662 8.01534 14.6676 8.01334 14.6676C8.01268 14.6676 8.01218 14.6674 8.01168 14.6672C8.01118 14.6671 8.01068 14.6669 8.01001 14.6669C8.00881 14.6669 8.00748 14.667 8.00601 14.6672C8.00421 14.6674 8.00221 14.6676 8.00001 14.6676C4.32401 14.6676 1.33334 11.6769 1.33334 8.0009C1.33334 4.32556 4.32401 1.33423 8.00001 1.33423C8.00177 1.33423 8.00372 1.33441 8.00555 1.33459C8.00719 1.33475 8.00875 1.3349 8.01001 1.3349C8.01177 1.3349 8.01334 1.33508 8.01483 1.33526C8.01616 1.33541 8.01742 1.33556 8.01868 1.33556ZM6.05268 7.33423C6.25668 5.1529 7.37268 3.63423 8.01734 2.93223C8.68401 3.64623 9.78268 5.1509 9.97268 7.33423H6.05268ZM4.71001 7.33423C4.85668 5.42556 5.59068 3.95223 6.29201 2.95356C4.39068 3.5989 2.97001 5.28623 2.71268 7.33423H4.71001ZM2.71268 8.66756H4.70734C4.84468 10.5756 5.56268 12.0382 6.27134 13.0416C4.38001 12.3902 2.96934 10.7082 2.71268 8.66756ZM9.74468 13.0356C10.444 12.0369 11.1713 10.5682 11.3167 8.66756H13.2867C13.0313 10.7022 11.6273 12.3809 9.74468 13.0356ZM9.97468 8.66756H6.05334C6.23934 10.8489 7.31001 12.3329 8.00801 13.0729C8.65201 12.3709 9.77068 10.8522 9.97468 8.66756ZM13.2867 7.33423H11.3187C11.182 5.4349 10.472 3.9769 9.76668 2.9749C11.6387 3.6349 13.0327 5.30756 13.2867 7.33423Z" fill="#566063"/>
<mask id="mask0_18_24804" style="mask-type:alpha" maskUnits="userSpaceOnUse" x="1" y="1" width="14" height="14">
<path fill-rule="evenodd" clip-rule="evenodd" d="M8.01868 1.33556C11.686 1.34623 14.6667 4.33156 14.6667 8.0009C14.6667 11.6702 11.686 14.6562 8.01868 14.6662C8.01734 14.6662 8.01534 14.6676 8.01334 14.6676C8.01268 14.6676 8.01218 14.6674 8.01168 14.6672C8.01118 14.6671 8.01068 14.6669 8.01001 14.6669C8.00881 14.6669 8.00748 14.667 8.00601 14.6672C8.00421 14.6674 8.00221 14.6676 8.00001 14.6676C4.32401 14.6676 1.33334 11.6769 1.33334 8.0009C1.33334 4.32556 4.32401 1.33423 8.00001 1.33423C8.00177 1.33423 8.00372 1.33441 8.00555 1.33459C8.00719 1.33475 8.00875 1.3349 8.01001 1.3349C8.01177 1.3349 8.01334 1.33508 8.01483 1.33526C8.01616 1.33541 8.01742 1.33556 8.01868 1.33556ZM6.05268 7.33423C6.25668 5.1529 7.37268 3.63423 8.01734 2.93223C8.68401 3.64623 9.78268 5.1509 9.97268 7.33423H6.05268ZM4.71001 7.33423C4.85668 5.42556 5.59068 3.95223 6.29201 2.95356C4.39068 3.5989 2.97001 5.28623 2.71268 7.33423H4.71001ZM2.71268 8.66756H4.70734C4.84468 10.5756 5.56268 12.0382 6.27134 13.0416C4.38001 12.3902 2.96934 10.7082 2.71268 8.66756ZM9.74468 13.0356C10.444 12.0369 11.1713 10.5682 11.3167 8.66756H13.2867C13.0313 10.7022 11.6273 12.3809 9.74468 13.0356ZM9.97468 8.66756H6.05334C6.23934 10.8489 7.31001 12.3329 8.00801 13.0729C8.65201 12.3709 9.77068 10.8522 9.97468 8.66756ZM13.2867 7.33423H11.3187C11.182 5.4349 10.472 3.9769 9.76668 2.9749C11.6387 3.6349 13.0327 5.30756 13.2867 7.33423Z" fill="white"/>
</mask>
<g mask="url(#mask0_18_24804)">
</g>
</svg>
