<svg width="40" height="40" viewBox="0 0 40 40" fill="none" xmlns="http://www.w3.org/2000/svg">
<g clip-path="url(#clip0_12_3113)">
<circle cx="20" cy="20" r="16" fill="#F9FAFA"/>
<g filter="url(#filter0_d_12_3113)">
<ellipse cx="20" cy="20" rx="14" ry="14" fill="white"/>
</g>
<path d="M23.3315 30.4802C17.5437 32.3204 11.3599 29.1199 9.51969 23.3316C8.59982 20.4377 8.93991 17.4448 10.2333 14.9451C10.8658 13.7237 11.7261 12.6195 12.7784 11.7029" stroke="#BCC1C2" stroke-width="1.5" stroke-linecap="round"/>
<path d="M16.6699 9.51986C22.4577 7.67966 28.6419 10.8802 30.4816 16.6684C31.4015 19.5623 31.0614 22.5552 29.768 25.055C29.1227 26.3012 28.2409 27.425 27.1592 28.3522" stroke="#A5AAAC" stroke-width="1.5" stroke-linecap="round"/>
<path d="M27.4099 23.0688C27.0121 24.029 26.4254 24.9108 25.6682 25.6675C24.1544 27.1814 22.1418 28.0151 20.001 28.0151C15.5813 28.0151 11.9861 24.4195 11.9861 20.0002" stroke="#899194" stroke-width="1.5" stroke-linecap="round"/>
<path d="M12.552 17.0256C12.9498 16.0292 13.5502 15.1144 14.3317 14.3329C15.8456 12.8191 17.8586 11.9854 19.9994 11.9854C24.4186 11.9854 28.0142 15.581 28.0142 20.0002" stroke="#6F787B" stroke-width="1.5" stroke-linecap="round"/>
<path d="M19.9994 24.8578C17.3209 24.8578 15.142 22.6789 15.142 20.0004C15.142 18.7029 15.6471 17.4828 16.5647 16.5657" stroke="#6F787B" stroke-width="1.5" stroke-linecap="round"/>
<path d="M20.0004 15.1423C22.6789 15.1423 24.8578 17.3212 24.8578 19.9997C24.8578 21.2973 24.3527 22.5169 23.4352 23.4344" stroke="#BCC1C2" stroke-width="1.5" stroke-linecap="round"/>
<path fill-rule="evenodd" clip-rule="evenodd" d="M21.7629 20C21.7629 20.9731 20.9744 21.7616 20.0013 21.7616C19.0283 21.7616 18.2397 20.9731 18.2397 20C18.2397 19.027 19.0283 18.238 20.0013 18.238C20.9744 18.238 21.7629 19.027 21.7629 20Z" fill="#BCC1C2"/>
</g>
<defs>
<filter id="filter0_d_12_3113" x="1" y="4" width="38" height="38" filterUnits="userSpaceOnUse" color-interpolation-filters="sRGB">
<feFlood flood-opacity="0" result="BackgroundImageFix"/>
<feColorMatrix in="SourceAlpha" type="matrix" values="0 0 0 0 0 0 0 0 0 0 0 0 0 0 0 0 0 0 127 0" result="hardAlpha"/>
<feOffset dy="3"/>
<feGaussianBlur stdDeviation="2.5"/>
<feColorMatrix type="matrix" values="0 0 0 0 0.913725 0 0 0 0 0.921569 0 0 0 0 0.92549 0 0 0 1 0"/>
<feBlend mode="normal" in2="BackgroundImageFix" result="effect1_dropShadow_12_3113"/>
<feBlend mode="normal" in="SourceGraphic" in2="effect1_dropShadow_12_3113" result="shape"/>
</filter>
<clipPath id="clip0_12_3113">
<rect width="40" height="40" fill="white"/>
</clipPath>
</defs>
</svg>
