<svg width="16" height="17" viewBox="0 0 16 17" fill="none" xmlns="http://www.w3.org/2000/svg">
<path fill-rule="evenodd" clip-rule="evenodd" d="M2.66666 6.61721C2.66666 3.70454 5.05932 1.33521 7.99999 1.33521C10.9407 1.33521 13.3333 3.70454 13.3333 6.61721C13.3333 10.2665 8.63399 14.3365 8.43399 14.5079C8.30866 14.6152 8.15466 14.6685 7.99999 14.6685C7.84532 14.6685 7.69132 14.6152 7.56599 14.5079C7.36599 14.3365 2.66666 10.2665 2.66666 6.61721ZM7.99999 8.66854C6.71332 8.66854 5.66666 7.62187 5.66666 6.33521C5.66666 5.04854 6.71332 4.00187 7.99999 4.00187C9.28666 4.00187 10.3333 5.04854 10.3333 6.33521C10.3333 7.62187 9.28666 8.66854 7.99999 8.66854ZM7.99999 5.33521C7.44866 5.33521 6.99999 5.78387 6.99999 6.33521C6.99999 6.88654 7.44866 7.33521 7.99999 7.33521C8.55132 7.33521 8.99999 6.88654 8.99999 6.33521C8.99999 5.78387 8.55132 5.33521 7.99999 5.33521Z" fill="#566063"/>
<mask id="mask0_18_24892" style="mask-type:alpha" maskUnits="userSpaceOnUse" x="2" y="1" width="12" height="14">
<path fill-rule="evenodd" clip-rule="evenodd" d="M2.66666 6.61721C2.66666 3.70454 5.05932 1.33521 7.99999 1.33521C10.9407 1.33521 13.3333 3.70454 13.3333 6.61721C13.3333 10.2665 8.63399 14.3365 8.43399 14.5079C8.30866 14.6152 8.15466 14.6685 7.99999 14.6685C7.84532 14.6685 7.69132 14.6152 7.56599 14.5079C7.36599 14.3365 2.66666 10.2665 2.66666 6.61721ZM7.99999 8.66854C6.71332 8.66854 5.66666 7.62187 5.66666 6.33521C5.66666 5.04854 6.71332 4.00187 7.99999 4.00187C9.28666 4.00187 10.3333 5.04854 10.3333 6.33521C10.3333 7.62187 9.28666 8.66854 7.99999 8.66854ZM7.99999 5.33521C7.44866 5.33521 6.99999 5.78387 6.99999 6.33521C6.99999 6.88654 7.44866 7.33521 7.99999 7.33521C8.55132 7.33521 8.99999 6.88654 8.99999 6.33521C8.99999 5.78387 8.55132 5.33521 7.99999 5.33521Z" fill="white"/>
</mask>
<g mask="url(#mask0_18_24892)">
</g>
</svg>
