<svg width="45" height="40" viewBox="0 0 45 40" fill="none" xmlns="http://www.w3.org/2000/svg">
<path d="M19.7692 23.1007C19.7828 23.2298 19.7906 23.3781 19.7906 23.5284C19.7906 24.773 19.2581 25.8944 18.4077 26.6843L18.4057 26.6862C14.0852 30.6667 9.00585 33.9131 3.41548 36.1808L3.08388 36.3003C2.62159 36.4891 2.08128 36.6374 1.52146 36.7184L1.4844 36.7222C1.40637 36.7395 1.31665 36.7492 1.22497 36.7492C0.548115 36.7492 0 36.2078 0 35.5392C0 35.5142 0 35.4872 0.00195059 35.4622V35.466C0.023407 35.1924 0.079974 34.9362 0.1658 34.6973L0.159948 34.7185C1.6619 30.4933 6.74903 21.3166 8.94344 17.5346C11.6723 12.7969 18.829 1.39876 19.896 0.148353C19.9662 0.0577999 20.0735 0 20.1964 0C20.2568 0 20.3154 0.0134866 20.3661 0.0404599L20.3641 0.0385333C20.5416 0.123306 20.6879 0.233126 20.5085 0.865072C19.5722 4.24251 18.2146 11.5985 19.619 21.6557C19.6912 22.1759 19.7711 22.6518 19.7711 23.1007H19.7692Z" fill="#00ADEE"/>
<path d="M21.5228 27.9308C22.225 27.4376 23.1008 27.1428 24.0469 27.1428C24.513 27.1428 24.9617 27.2141 25.383 27.3471L25.3518 27.3394C31.5215 29.2313 36.8778 32.0616 41.5553 35.7049L41.45 35.6259C41.8908 35.9689 42.277 36.3484 42.6125 36.7704L42.6242 36.7839C42.8212 36.9996 42.9422 37.2848 42.9422 37.5988C42.9422 38.0689 42.671 38.4774 42.2751 38.6797L42.2673 38.6835C42.0547 38.7857 41.8069 38.8685 41.5475 38.9147L41.53 38.9167C37.0826 39.749 26.4714 39.9648 22.0709 39.9975C16.5547 40.0361 2.99418 39.6141 1.35179 39.3463C1.17429 39.3213 1.03579 39.1787 1.02214 39.0034V39.0015C1.02214 38.8069 1.02214 38.6296 1.68144 38.4678C5.11447 37.5757 12.2244 35.0576 20.3563 28.8344C20.7718 28.4838 21.1463 28.1832 21.5228 27.9289V27.9308Z" fill="#00ADEE"/>
<path d="M24.8973 24.0371C23.6742 23.4668 22.775 22.3917 22.4649 21.0912L22.459 21.0623C21.6515 17.7484 21.1892 13.9452 21.1892 10.0341C21.1892 7.60262 21.3687 5.21356 21.7139 2.87844L21.6807 3.14432C21.7646 2.55476 21.9148 2.02108 22.1255 1.52014L22.1099 1.56253C22.2737 1.06738 22.738 0.714799 23.2841 0.714799C23.5338 0.714799 23.7659 0.788012 23.959 0.913245L23.9551 0.911318C24.1716 1.06352 24.3589 1.23307 24.5247 1.42188L24.5286 1.42574C27.4818 4.81667 32.9766 13.793 35.2042 17.5288C37.9915 22.2279 44.4304 34.0422 44.9707 35.5913C44.9883 35.6336 45 35.6837 45 35.7358C45 35.8648 44.9337 35.9785 44.8342 36.0479H44.8322C44.6684 36.1577 44.5026 36.2232 44.0423 35.7608C41.5182 33.2735 35.7718 28.4318 26.2568 24.6035C25.7555 24.4089 25.3088 24.2317 24.8992 24.0371H24.8973Z" fill="#00ADEE"/>
</svg>
