<svg width="16" height="17" viewBox="0 0 16 17" fill="none" xmlns="http://www.w3.org/2000/svg">
<path fill-rule="evenodd" clip-rule="evenodd" d="M6.93108 1.41799C9.08375 1.08532 11.1911 1.76465 12.7137 3.28732C14.2371 4.81065 14.9184 6.91799 14.5831 9.06999C14.1591 11.788 11.9697 14.0413 9.25842 14.55C7.95375 14.794 6.62442 14.654 5.41508 14.1427C5.30908 14.0987 5.14975 14.0527 4.98575 14.084L2.13042 14.6547C2.08708 14.664 2.04308 14.668 1.99975 14.668C1.82442 14.668 1.65442 14.5987 1.52842 14.4727C1.37108 14.3153 1.30242 14.0893 1.34642 13.8707L1.91775 11.012C1.94375 10.8833 1.92375 10.7393 1.85842 10.586C1.34708 9.37732 1.20642 8.04799 1.45108 6.74265C1.95975 4.03132 4.21308 1.84199 6.93108 1.41799ZM5.33308 8.66799C4.96508 8.66799 4.66642 8.36932 4.66642 8.00132C4.66642 7.63332 4.96508 7.33465 5.33308 7.33465C5.70108 7.33465 5.99975 7.63332 5.99975 8.00132C5.99975 8.36932 5.70108 8.66799 5.33308 8.66799ZM7.33308 8.00132C7.33308 8.36932 7.63175 8.66799 7.99975 8.66799C8.36775 8.66799 8.66642 8.36932 8.66642 8.00132C8.66642 7.63332 8.36775 7.33465 7.99975 7.33465C7.63175 7.33465 7.33308 7.63332 7.33308 8.00132ZM9.99975 8.00132C9.99975 8.36932 10.2984 8.66799 10.6664 8.66799C11.0344 8.66799 11.3331 8.36932 11.3331 8.00132C11.3331 7.63332 11.0344 7.33465 10.6664 7.33465C10.2984 7.33465 9.99975 7.63332 9.99975 8.00132Z" fill="#566063"/>
<mask id="mask0_18_24879" style="mask-type:alpha" maskUnits="userSpaceOnUse" x="1" y="1" width="14" height="14">
<path fill-rule="evenodd" clip-rule="evenodd" d="M6.93108 1.41799C9.08375 1.08532 11.1911 1.76465 12.7137 3.28732C14.2371 4.81065 14.9184 6.91799 14.5831 9.06999C14.1591 11.788 11.9697 14.0413 9.25842 14.55C7.95375 14.794 6.62442 14.654 5.41508 14.1427C5.30908 14.0987 5.14975 14.0527 4.98575 14.084L2.13042 14.6547C2.08708 14.664 2.04308 14.668 1.99975 14.668C1.82442 14.668 1.65442 14.5987 1.52842 14.4727C1.37108 14.3153 1.30242 14.0893 1.34642 13.8707L1.91775 11.012C1.94375 10.8833 1.92375 10.7393 1.85842 10.586C1.34708 9.37732 1.20642 8.04799 1.45108 6.74265C1.95975 4.03132 4.21308 1.84199 6.93108 1.41799ZM5.33308 8.66799C4.96508 8.66799 4.66642 8.36932 4.66642 8.00132C4.66642 7.63332 4.96508 7.33465 5.33308 7.33465C5.70108 7.33465 5.99975 7.63332 5.99975 8.00132C5.99975 8.36932 5.70108 8.66799 5.33308 8.66799ZM7.33308 8.00132C7.33308 8.36932 7.63175 8.66799 7.99975 8.66799C8.36775 8.66799 8.66642 8.36932 8.66642 8.00132C8.66642 7.63332 8.36775 7.33465 7.99975 7.33465C7.63175 7.33465 7.33308 7.63332 7.33308 8.00132ZM9.99975 8.00132C9.99975 8.36932 10.2984 8.66799 10.6664 8.66799C11.0344 8.66799 11.3331 8.36932 11.3331 8.00132C11.3331 7.63332 11.0344 7.33465 10.6664 7.33465C10.2984 7.33465 9.99975 7.63332 9.99975 8.00132Z" fill="white"/>
</mask>
<g mask="url(#mask0_18_24879)">
</g>
</svg>
