<svg width="16" height="17" viewBox="0 0 16 17" fill="none" xmlns="http://www.w3.org/2000/svg">
<path d="M11.5999 14.6685C5.93859 14.6685 1.33325 10.0632 1.33325 4.40187C1.33325 2.71054 2.70925 1.33521 4.39992 1.33521C4.57325 1.33521 4.74459 1.34987 4.91059 1.37854C5.07259 1.40454 5.23592 1.44587 5.39392 1.50054C5.61125 1.57587 5.77392 1.75787 5.82525 1.98187L6.73859 5.95787C6.78859 6.17654 6.72525 6.40587 6.56992 6.56854C6.47859 6.66321 6.47659 6.66521 5.64992 7.09787C6.31925 8.54721 7.48258 9.70654 8.90325 10.3532C9.33592 9.52587 9.33858 9.5232 9.43325 9.43254C9.59659 9.27654 9.82659 9.21587 10.0446 9.26387L14.0206 10.1765C14.2439 10.2279 14.4259 10.3905 14.5013 10.6072C14.5559 10.7645 14.5966 10.9272 14.6239 11.0945C14.6519 11.2592 14.6666 11.4299 14.6666 11.6019C14.6666 13.2932 13.2913 14.6685 11.5999 14.6685Z" fill="#566063"/>
<mask id="mask0_18_24874" style="mask-type:alpha" maskUnits="userSpaceOnUse" x="1" y="1" width="14" height="14">
<path d="M11.5999 14.6685C5.93859 14.6685 1.33325 10.0632 1.33325 4.40187C1.33325 2.71054 2.70925 1.33521 4.39992 1.33521C4.57325 1.33521 4.74459 1.34987 4.91059 1.37854C5.07259 1.40454 5.23592 1.44587 5.39392 1.50054C5.61125 1.57587 5.77392 1.75787 5.82525 1.98187L6.73859 5.95787C6.78859 6.17654 6.72525 6.40587 6.56992 6.56854C6.47859 6.66321 6.47659 6.66521 5.64992 7.09787C6.31925 8.54721 7.48258 9.70654 8.90325 10.3532C9.33592 9.52587 9.33858 9.5232 9.43325 9.43254C9.59659 9.27654 9.82659 9.21587 10.0446 9.26387L14.0206 10.1765C14.2439 10.2279 14.4259 10.3905 14.5013 10.6072C14.5559 10.7645 14.5966 10.9272 14.6239 11.0945C14.6519 11.2592 14.6666 11.4299 14.6666 11.6019C14.6666 13.2932 13.2913 14.6685 11.5999 14.6685Z" fill="white"/>
</mask>
<g mask="url(#mask0_18_24874)">
</g>
</svg>
