<svg width="24" height="24" viewBox="0 0 24 24" fill="none" xmlns="http://www.w3.org/2000/svg">
<path fill-rule="evenodd" clip-rule="evenodd" d="M19.0827 17.196L23.6094 21.724C24.1307 22.2453 24.1307 23.088 23.6094 23.6093C23.3494 23.8693 23.008 24 22.6667 24C22.3254 24 21.984 23.8693 21.724 23.6093L17.196 19.0827C15.3907 20.4867 13.128 21.3333 10.6667 21.3333C4.78536 21.3333 3.05176e-05 16.548 3.05176e-05 10.6667C3.05176e-05 4.78533 4.78536 0 10.6667 0C16.548 0 21.3334 4.78533 21.3334 10.6667C21.3334 13.128 20.4867 15.3907 19.0827 17.196ZM10.6667 2.66667C6.25472 2.66667 2.66672 6.25467 2.66672 10.6667C2.66672 15.0787 6.25472 18.6667 10.6667 18.6667C15.0787 18.6667 18.6667 15.0787 18.6667 10.6667C18.6667 6.25467 15.0787 2.66667 10.6667 2.66667Z" fill="#566063"/>
</svg>
