<svg width="28" height="28" viewBox="0 0 28 28" fill="none" xmlns="http://www.w3.org/2000/svg">
<rect y="0.000976562" width="28" height="28" rx="14" fill="#F9FAFA"/>
<path fill-rule="evenodd" clip-rule="evenodd" d="M14 10.0009C14.368 10.0009 14.6667 9.70289 14.6667 9.33423V8.0009C14.6667 7.63223 14.368 7.33423 14 7.33423C13.632 7.33423 13.3333 7.63223 13.3333 8.0009V9.33423C13.3333 9.70289 13.632 10.0009 14 10.0009ZM20 13.3342H18.6667C18.2987 13.3342 18 13.6322 18 14.0009C18 14.3696 18.2987 14.6676 18.6667 14.6676H20C20.368 14.6676 20.6667 14.3696 20.6667 14.0009C20.6667 13.6322 20.368 13.3342 20 13.3342ZM9.33334 13.3342C9.70134 13.3342 10 13.6322 10 14.0009C10 14.3696 9.70134 14.6676 9.33334 14.6676H8.00001C7.63201 14.6676 7.33334 14.3696 7.33334 14.0009C7.33334 13.6322 7.63201 13.3342 8.00001 13.3342H9.33334ZM10.1471 9.3531C9.88248 9.09776 9.46048 9.10576 9.20448 9.36976C8.94848 9.63443 8.95581 10.0571 9.22048 10.3124L10.1798 11.2391C10.3098 11.3644 10.4765 11.4258 10.6431 11.4258C10.8178 11.4258 10.9918 11.3578 11.1225 11.2224C11.3785 10.9578 11.3711 10.5351 11.1065 10.2798L10.1471 9.3531ZM17.8201 11.2394C17.6901 11.364 17.5235 11.426 17.3568 11.426C17.1821 11.426 17.0081 11.3574 16.8775 11.222C16.6215 10.958 16.6288 10.5354 16.8935 10.2794L17.8528 9.35336C18.1188 9.09803 18.5401 9.10603 18.7955 9.37003C19.0515 9.63403 19.0441 10.0567 18.7795 10.3127L17.8201 11.2394ZM14 18.0009C13.632 18.0009 13.3333 18.2989 13.3333 18.6676V20.0009C13.3333 20.3696 13.632 20.6676 14 20.6676C14.368 20.6676 14.6667 20.3696 14.6667 20.0009V18.6676C14.6667 18.2989 14.368 18.0009 14 18.0009ZM16.8773 16.7793C17.1333 16.5153 17.5553 16.5073 17.82 16.7626L18.7793 17.6893C19.044 17.9446 19.0513 18.3673 18.7953 18.632C18.6647 18.7673 18.4907 18.8353 18.316 18.8353C18.1493 18.8353 17.9827 18.774 17.8527 18.6486L16.8933 17.722C16.6287 17.4666 16.6213 17.044 16.8773 16.7793ZM10.18 16.7626L9.22068 17.6893C8.95601 17.9446 8.94868 18.3673 9.20468 18.632C9.33534 18.7673 9.50934 18.8353 9.68401 18.8353C9.85068 18.8353 10.0173 18.774 10.1473 18.6486L11.1067 17.722C11.3713 17.4666 11.3787 17.044 11.1227 16.7793C10.8673 16.5153 10.4453 16.5073 10.18 16.7626ZM11.3333 14.0009C11.3333 12.5302 12.5293 11.3342 14 11.3342C15.4707 11.3342 16.6667 12.5302 16.6667 14.0009C16.6667 15.4716 15.4707 16.6676 14 16.6676C12.5293 16.6676 11.3333 15.4716 11.3333 14.0009Z" fill="#6F787B"/>
<mask id="mask0_18_24781" style="mask-type:alpha" maskUnits="userSpaceOnUse" x="7" y="7" width="14" height="14">
<path fill-rule="evenodd" clip-rule="evenodd" d="M14 10.0009C14.368 10.0009 14.6667 9.70289 14.6667 9.33423V8.0009C14.6667 7.63223 14.368 7.33423 14 7.33423C13.632 7.33423 13.3333 7.63223 13.3333 8.0009V9.33423C13.3333 9.70289 13.632 10.0009 14 10.0009ZM20 13.3342H18.6667C18.2987 13.3342 18 13.6322 18 14.0009C18 14.3696 18.2987 14.6676 18.6667 14.6676H20C20.368 14.6676 20.6667 14.3696 20.6667 14.0009C20.6667 13.6322 20.368 13.3342 20 13.3342ZM9.33334 13.3342C9.70134 13.3342 10 13.6322 10 14.0009C10 14.3696 9.70134 14.6676 9.33334 14.6676H8.00001C7.63201 14.6676 7.33334 14.3696 7.33334 14.0009C7.33334 13.6322 7.63201 13.3342 8.00001 13.3342H9.33334ZM10.1471 9.3531C9.88248 9.09776 9.46048 9.10576 9.20448 9.36976C8.94848 9.63443 8.95581 10.0571 9.22048 10.3124L10.1798 11.2391C10.3098 11.3644 10.4765 11.4258 10.6431 11.4258C10.8178 11.4258 10.9918 11.3578 11.1225 11.2224C11.3785 10.9578 11.3711 10.5351 11.1065 10.2798L10.1471 9.3531ZM17.8201 11.2394C17.6901 11.364 17.5235 11.426 17.3568 11.426C17.1821 11.426 17.0081 11.3574 16.8775 11.222C16.6215 10.958 16.6288 10.5354 16.8935 10.2794L17.8528 9.35336C18.1188 9.09803 18.5401 9.10603 18.7955 9.37003C19.0515 9.63403 19.0441 10.0567 18.7795 10.3127L17.8201 11.2394ZM14 18.0009C13.632 18.0009 13.3333 18.2989 13.3333 18.6676V20.0009C13.3333 20.3696 13.632 20.6676 14 20.6676C14.368 20.6676 14.6667 20.3696 14.6667 20.0009V18.6676C14.6667 18.2989 14.368 18.0009 14 18.0009ZM16.8773 16.7793C17.1333 16.5153 17.5553 16.5073 17.82 16.7626L18.7793 17.6893C19.044 17.9446 19.0513 18.3673 18.7953 18.632C18.6647 18.7673 18.4907 18.8353 18.316 18.8353C18.1493 18.8353 17.9827 18.774 17.8527 18.6486L16.8933 17.722C16.6287 17.4666 16.6213 17.044 16.8773 16.7793ZM10.18 16.7626L9.22068 17.6893C8.95601 17.9446 8.94868 18.3673 9.20468 18.632C9.33534 18.7673 9.50934 18.8353 9.68401 18.8353C9.85068 18.8353 10.0173 18.774 10.1473 18.6486L11.1067 17.722C11.3713 17.4666 11.3787 17.044 11.1227 16.7793C10.8673 16.5153 10.4453 16.5073 10.18 16.7626ZM11.3333 14.0009C11.3333 12.5302 12.5293 11.3342 14 11.3342C15.4707 11.3342 16.6667 12.5302 16.6667 14.0009C16.6667 15.4716 15.4707 16.6676 14 16.6676C12.5293 16.6676 11.3333 15.4716 11.3333 14.0009Z" fill="white"/>
</mask>
<g mask="url(#mask0_18_24781)">
</g>
</svg>
